<svg xmlns="http://www.w3.org/2000/svg" width="64" height="64" viewBox="0 0 64 64"><defs><linearGradient id="g" x1="0" y1="0" x2="1" y2="1"><stop offset="0" stop-color="#C81E1E"/><stop offset="1" stop-color="#F59E0B"/></linearGradient></defs><rect width="64" height="64" rx="14" fill="url(#g)"/><path d="M32 12 L50 18 V31 C50 41 42 48 32 51 C22 48 14 41 14 31 V18 Z" fill="#fff"/><path d="M32 23c-.6 3.6-3.4 5-4.8 7.6-.7 1.3-1.1 2.7-1.1 4.2 0 3.5 2.6 6 5.9 6s5.9-2.5 5.9-6c0-2-.9-3.6-2.3-5.2-.5 1.2-1.1 1.7-1.9 1.9 1-2.6.4-5.8-1.6-8.5z" fill="#E11D2A"/></svg>